<svg width="200mm" height="200mm" viewBox="0 0 200 200" xmlns:xlink="http://www.w3.org/1999/xlink" xmlns="http://www.w3.org/2000/svg"><defs><linearGradient id="a"><stop style="stop-color:#ecbf2c;stop-opacity:1" offset="0"/><stop style="stop-color:#9459e3;stop-opacity:1" offset="1"/></linearGradient><linearGradient xlink:href="#a" id="b" x1="73.8" y1="7.1" x2="542" y2="614.3" gradientUnits="userSpaceOnUse" gradientTransform="translate(4.4 4.4) scale(.26458)"/><linearGradient xlink:href="#a" id="c" x1="803.1" y1="544.6" x2="353.4" y2="485.2" gradientUnits="userSpaceOnUse"/></defs><path style="fill:#000;fill-opacity:0;fill-rule:evenodd;stroke:url(#b);stroke-width:13;stroke-linecap:round;stroke-linejoin:bevel;stroke-miterlimit:4;stroke-dasharray:none;stroke-opacity:1;paint-order:stroke fill markers" d="M50.7 8.4A41.6 41.6 0 0 0 8.4 48.5a41.6 41.6 0 0 0 39.4 43A41.6 41.6 0 0 0 91.5 53l.1-2.9A41.6 41.6 0 0 0 50.7 8.4Zm100 0a41.6 41.6 0 0 0-42.3 40.1 41.6 41.6 0 0 0 39.4 43A41.6 41.6 0 0 0 191.5 53l.1-2.9a41.6 41.6 0 0 0-40.9-41.6Zm-100 100a41.6 41.6 0 0 0-42.3 40.1 41.6 41.6 0 0 0 39.4 43A41.6 41.6 0 0 0 91.5 153l.1-2.9a41.6 41.6 0 0 0-40.9-41.6z" fill="none"/><path style="fill:none;fill-rule:evenodd;stroke:url(#c);stroke-width:48.666;stroke-miterlimit:4;stroke-dasharray:none" d="M557.4 546.4c107.6 37.1 34.2 118-37.6 109-73.5-9.3-115.2-87.6-99.3-156.1 19.4-84 109.5-131.2 190.8-109.4 56.3 15.1 101 60 117.7 115.7" transform="matrix(.14372 .22389 .22821 -.141 -53.2 96.6)"/></svg>